<?xml version="1.0" encoding="utf-8"?>
<!-- Generator: Adobe Illustrator 19.1.0, SVG Export Plug-In . SVG Version: 6.00 Build 0)  -->
<svg version="1.1" id="Layer_1" xmlns="http://www.w3.org/2000/svg" xmlns:xlink="http://www.w3.org/1999/xlink" x="0px" y="0px"
	 viewBox="0 0 48 48" style="enable-background:new 0 0 48 48;" xml:space="preserve">
<style type="text/css">
	.st0{fill:#EFEDE5;}
</style>
<g>
	<circle class="st0" cx="38" cy="14" r="4"/>
	<path class="st0" d="M44,4H4C2,4,0,6,0,8v32c0,2,2,4,4,4h40c2,0,4-2,4-4V8C48,6,46,4,44,4z M44,39c0,0,0,1-1,1H5c0,0-1,0-1-1V9
		c0,0,0-1,1-1h38c0,0,1,0,1,1V39z"/>
	<path class="st0" d="M41.3,24.1l-6-2c-0.2-0.1-0.4-0.1-0.6,0L30,23.6V14c0-0.4-0.2-0.7-0.6-0.9l-6-3c0,0,0,0,0,0
		C23.3,10,23.2,10,23,10s-0.3,0-0.4,0.1c0,0,0,0,0,0l-6,3C16.2,13.3,16,13.6,16,14v7.5l-3.6-1.5c-0.2-0.1-0.5-0.1-0.7,0l-5,2
		C6.2,22.2,6,22.6,6,23v14c0,0.6,0.4,1,1,1h5h23h6c0.6,0,1-0.4,1-1V25C42,24.6,41.7,24.2,41.3,24.1z M8,23.7l3-1.2V36H8V23.7z
		 M13,36V22.5l3,1.2V36H13z M18,36V14.6l4-2V36H18z M24,36V12.6l4,2V36H24z M30,36V25.7l4-1.3V36H30z M40,36h-4V24.4l4,1.3V36z"/>
</g>
</svg>
