<?xml version="1.0" encoding="utf-8"?>
<!-- Generator: Adobe Illustrator 16.0.4, SVG Export Plug-In . SVG Version: 6.00 Build 0)  -->
<!DOCTYPE svg PUBLIC "-//W3C//DTD SVG 1.1//EN" "http://www.w3.org/Graphics/SVG/1.1/DTD/svg11.dtd">
<svg version="1.1" id="Layer_1" xmlns="http://www.w3.org/2000/svg" xmlns:xlink="http://www.w3.org/1999/xlink" x="0px" y="0px"
	 width="48px" height="48px" viewBox="0 0 48 48" enable-background="new 0 0 48 48" xml:space="preserve">
<g>
	<path fill="#6E6769" d="M38.312,4c-2.547,0-4.453,1.094-5.797,3.328c-0.142,0.219-0.078,0.5,0.125,0.657l2.062,1.562
		C34.781,9.609,34.891,9.64,35,9.64c0.141,0,0.297-0.062,0.393-0.187c0.732-0.938,1.045-1.22,1.342-1.438
		C37,7.828,37.516,7.64,38.078,7.64c1,0,1.922,0.642,1.922,1.329c0,0.812-0.422,1.218-1.375,1.656
		C37.516,11.125,36,12.422,36,13.938V14.5c0,0.281,0.219,0.5,0.5,0.5h3.001C39.781,15,40,14.781,40,14.5
		c0-0.359,0.453-1.125,1.188-1.546C42.375,12.281,44,11.374,44,9C44,6.14,41,4,38.312,4z"/>
	<circle fill="#6E6769" cx="38" cy="18" r="2"/>
</g>
<g>
	<path fill="#6E6769" d="M32,26L22,36L12,26c-6,0-8,8-8,16c0,2,2,4,4,4h28c2,0,4-2,4-4C40,34,38,26,32,26z"/>
</g>
<g>
	<path fill="#6E6769" d="M30,14c0-4.417-3.581-8-8-8s-8,3.583-8,8v4c0,4.416,3.581,8,8,8s8-3.584,8-8V14z"/>
</g>
<rect fill="none" width="48" height="48"/>
</svg>
